<svg width="256px" height="256px" viewBox="0 0 1024 1024" class="icon" version="1.1" xmlns="http://www.w3.org/2000/svg" fill="#000000" stroke="#000000" stroke-width="0.01024">
    <g id="SVGRepo_bgCarrier" stroke-width="0"></g>
    <g id="SVGRepo_tracerCarrier" stroke-linecap="round" stroke-linejoin="round" stroke="#CCCCCC" stroke-width="6.144">
        <path d="M512 550.4m-262.4 0a262.4 262.4 0 1 0 524.8 0 262.4 262.4 0 1 0-524.8 0Z" fill="#0cac61"></path>
        <path d="M275.2 736c-44.8 0-70.4-12.8-83.2-32-12.8-25.6 0-70.4 38.4-121.6 0-6.4 6.4-6.4 12.8 0 6.4 0 6.4 6.4 0 12.8-38.4 44.8-51.2 76.8-38.4 102.4 12.8 25.6 57.6 32 121.6 19.2 70.4-12.8 153.6-44.8 236.8-89.6 83.2-44.8 153.6-96 204.8-147.2 44.8-44.8 64-89.6 51.2-115.2-12.8-25.6-57.6-32-128-19.2-6.4 0-6.4 0-12.8-6.4 0-6.4 0-6.4 6.4-12.8 76.8-12.8 128-6.4 140.8 25.6 19.2 32 0 76.8-51.2 134.4-51.2 51.2-121.6 108.8-204.8 153.6-83.2 44.8-172.8 76.8-243.2 89.6-19.2 6.4-38.4 6.4-51.2 6.4z" fill="#a81600"></path>
        <path d="M883.2 620.8H832c-6.4 0-6.4-6.4-6.4-6.4l6.4-6.4h44.8c6.4 0 6.4 6.4 6.4 6.4v6.4z" fill="#0cac61"></path>
        <path d="M857.6 646.4c-6.4 0-6.4-6.4-6.4-6.4v-51.2c0-6.4 6.4-6.4 6.4-6.4 6.4 0 6.4 6.4 6.4 6.4v44.8c0 6.4 0 12.8-6.4 12.8zM179.2 467.2h-44.8c-6.4 0-12.8 0-12.8-6.4s6.4-6.4 6.4-6.4h44.8c6.4 0 6.4 6.4 6.4 6.4 6.4 6.4 6.4 6.4 0 6.4z" fill="#0cac61"></path>
        <path d="M153.6 492.8c-6.4 0-6.4-6.4-6.4-6.4v-51.2c0-6.4 6.4-6.4 6.4-6.4 6.4 0 6.4 6.4 6.4 6.4v44.8c6.4 6.4 0 12.8-6.4 12.8z" fill="#0cac61"></path>
        <path d="M204.8 544h-51.2c-6.4 0-6.4-6.4-6.4-6.4 0-6.4 6.4-6.4 6.4-6.4h44.8c6.4 0 6.4 6.4 6.4 6.4 6.4 0 0 6.4 0 6.4z" fill="#0cac61"></path>
        <path d="M179.2 563.2c-6.4 0-6.4-6.4-6.4-6.4V512c0-6.4 6.4-6.4 6.4-6.4 6.4 0 6.4 6.4 6.4 6.4v44.8s0 6.4-6.4 6.4z" fill="#0cac61"></path>
        <path d="M697.6 256h-44.8c-6.4 0-6.4-6.4-6.4-6.4 0-6.4 6.4-6.4 6.4-6.4h44.8c6.4 0 6.4 6.4 6.4 6.4 6.4 0 0 6.4-6.4 6.4z" fill="#0cac61"></path>
        <path d="M678.4 275.2c-6.4 0-6.4-6.4-6.4-6.4v-44.8c0-6.4 6.4-6.4 6.4-6.4l6.4 6.4v44.8c0 6.4 0 6.4-6.4 6.4z" fill="#0cac61"></path>
        <path d="M243.2 793.6c-51.2 0-96-12.8-108.8-44.8-25.6-44.8 6.4-121.6 89.6-204.8 6.4-6.4 6.4-6.4 12.8 0s6.4 6.4 0 12.8C160 633.6 128 697.6 147.2 736c38.4 70.4 236.8 38.4 435.2-70.4 198.4-108.8 332.8-256 294.4-326.4-25.6-44.8-108.8-51.2-217.6-19.2-6.4 0-6.4 0-12.8-6.4 0-6.4 0-6.4 6.4-12.8 121.6-32 211.2-25.6 236.8 25.6 44.8 76.8-89.6 236.8-300.8 352-128 70.4-256 115.2-345.6 115.2z" fill="#FDD000"></path>
    </g>
    <g id="SVGRepo_iconCarrier">
        <path d="M512 550.4m-262.4 0a262.4 262.4 0 1 0 524.8 0 262.4 262.4 0 1 0-524.8 0Z" fill="#0cac61"></path>
        <path d="M275.2 736c-44.8 0-70.4-12.8-83.2-32-12.8-25.6 0-70.4 38.4-121.6 0-6.4 6.4-6.4 12.8 0 6.4 0 6.4 6.4 0 12.8-38.4 44.8-51.2 76.8-38.4 102.4 12.8 25.6 57.6 32 121.6 19.2 70.4-12.8 153.6-44.8 236.8-89.6 83.2-44.8 153.6-96 204.8-147.2 44.8-44.8 64-89.6 51.2-115.2-12.8-25.6-57.6-32-128-19.2-6.4 0-6.4 0-12.8-6.4 0-6.4 0-6.4 6.4-12.8 76.8-12.8 128-6.4 140.8 25.6 19.2 32 0 76.8-51.2 134.4-51.2 51.2-121.6 108.8-204.8 153.6-83.2 44.8-172.8 76.8-243.2 89.6-19.2 6.4-38.4 6.4-51.2 6.4z" fill="#a81600"></path>
        <path d="M883.2 620.8H832c-6.4 0-6.4-6.4-6.4-6.4l6.4-6.4h44.8c6.4 0 6.4 6.4 6.4 6.4v6.4z" fill="#0cac61"></path>
        <path d="M857.6 646.4c-6.4 0-6.4-6.4-6.4-6.4v-51.2c0-6.4 6.4-6.4 6.4-6.4 6.4 0 6.4 6.4 6.4 6.4v44.8c0 6.4 0 12.8-6.4 12.8zM179.2 467.2h-44.8c-6.4 0-12.8 0-12.8-6.4s6.4-6.4 6.4-6.4h44.8c6.4 0 6.4 6.4 6.4 6.4 6.4 6.4 6.4 6.4 0 6.4z" fill="#0cac61"></path>
        <path d="M153.6 492.8c-6.4 0-6.4-6.4-6.4-6.4v-51.2c0-6.4 6.4-6.4 6.4-6.4 6.4 0 6.4 6.4 6.4 6.4v44.8c6.4 6.4 0 12.8-6.4 12.8z" fill="#0cac61"></path>
        <path d="M204.8 544h-51.2c-6.4 0-6.4-6.4-6.4-6.4 0-6.4 6.4-6.4 6.4-6.4h44.8c6.4 0 6.4 6.4 6.4 6.4 6.4 0 0 6.4 0 6.4z" fill="#0cac61"></path>
        <path d="M179.2 563.2c-6.4 0-6.4-6.4-6.4-6.4V512c0-6.4 6.4-6.4 6.4-6.4 6.4 0 6.4 6.4 6.4 6.4v44.8s0 6.4-6.4 6.4z" fill="#0cac61"></path>
        <path d="M697.6 256h-44.8c-6.4 0-6.4-6.4-6.4-6.4 0-6.4 6.4-6.4 6.4-6.4h44.8c6.4 0 6.4 6.4 6.4 6.4 6.4 0 0 6.4-6.4 6.4z" fill="#0cac61"></path>
        <path d="M678.4 275.2c-6.4 0-6.4-6.4-6.4-6.4v-44.8c0-6.4 6.4-6.4 6.4-6.4l6.4 6.4v44.8c0 6.4 0 6.4-6.4 6.4z" fill="#0cac61"></path>
        <path d="M243.2 793.6c-51.2 0-96-12.8-108.8-44.8-25.6-44.8 6.4-121.6 89.6-204.8 6.4-6.4 6.4-6.4 12.8 0s6.4 6.4 0 12.8C160 633.6 128 697.6 147.2 736c38.4 70.4 236.8 38.4 435.2-70.4 198.4-108.8 332.8-256 294.4-326.4-25.6-44.8-108.8-51.2-217.6-19.2-6.4 0-6.4 0-12.8-6.4 0-6.4 0-6.4 6.4-12.8 121.6-32 211.2-25.6 236.8 25.6 44.8 76.8-89.6 236.8-300.8 352-128 70.4-256 115.2-345.6 115.2z" fill="#FDD000"></path>
    </g>
    <style>
        path { fill: #555; }
        @media (prefers-color-scheme: dark) {
            path { fill: #FFF; }
        }
    </style>
</svg>